<?xml version="1.0" encoding="UTF-8"?>
<svg id="Layer_2" data-name="Layer 2" xmlns="http://www.w3.org/2000/svg" viewBox="0 0 882.21 329.97">
  <g id="Layer_1-2" data-name="Layer 1-2">
    <g>
      <path d="M685,220.97h-65l-34.5-53h-37.5v53h-52V5.97l104.54-.04c68.44.42,102.71,95.84,52.47,140.56-3.89,3.46-9.82,6.22-13,9.01-.61.53-1.28.84-.91,1.82l45.9,63.66h0ZM548,119.97h51.5c4.35,0,15.68-7.74,18.5-11.5,13.95-18.61-.89-49.5-23.5-49.5h-46.5v61Z"/>
      <path d="M329.8,1.27c91.6-8.11,154.89,88.12,109.72,168.72-39.66,70.78-140.27,76.85-188.93,11.89C198.44,112.27,243.06,8.95,329.8,1.27ZM337.79,50.27c-51.36,2.81-78.7,64.28-45.76,104.17,28.23,34.18,82.28,29.84,104.39-8.55,25.04-43.48-8.8-98.34-58.62-95.62h0Z"/>
      <polygon points="882 5.97 882 52.97 773 52.97 773 90.97 859 90.97 859 136.97 773 136.97 773 174.97 882 174.97 882 220.97 721 220.97 721 5.97 882 5.97"/>
      <path d="M203.99,179.99c-14.96,24.87-46.06,41.97-74.64,45.84C41.87,237.68-24.89,150.64,9.51,68.99S152.73-23.73,203.61,45.92l-1.09,2.03-37.03,23.79c-30.45-30.35-83.33-29.9-106.29,8.93-32.1,54.26,22.71,114.92,80.79,91.79,9.6-3.82,17.13-10.39,25.51-16.13l38.5,23.66h-.01Z"/>
      <path d="M447.13,290.1l11.86,2.89-5.88,16.29,11.88,11.18c-2.87,1.02-7.57,8.31-9.99,7.07-2.03-1.04-5.3-7.01-8.37-6.41-22.86,23.39-63.28-6.08-35.81-31.64-8.52-10.02-2.19-24.55,10.11-27.07,22.28-4.56,35.12,19.11,15.08,32.06l6.48,5.48,4.63-9.86h.01ZM422.24,275.21c-5.41,5.38,5.8,13.35,9.24,5.74,3.04-6.72-6.13-8.83-9.24-5.74ZM420.64,298.08c-1.79.31-4.79,4.91-5.23,6.83-1.76,7.67,6.31,14.01,13.61,12.66,2.34-.43,9.01-3.68,7.54-6.59-.55-1.09-14.82-13.09-15.92-12.9h0Z"/>
      <polygon points="686 304.97 686 267.97 700 267.97 700 327.97 685 327.97 656 292.97 656 327.97 642 327.97 642 267.97 656.56 268.91 686 304.97"/>
      <polygon points="15 267.97 15 292.97 41 292.97 41 267.97 56 267.97 56 327.97 41 327.97 41 305.97 15 305.97 15 327.97 0 327.97 0 267.97 15 267.97"/>
      <path d="M331,267.97v23.5c0,.3-1.27.77-1,1.5h27v-25h14v60h-14v-22h-26v19.5c0,.33-1.32,1.52-1,2.5h-14v-60h15Z"/>
      <polygon points="758 267.97 758 280.97 728 280.97 728 291.97 752 291.97 752 304.97 728 304.97 728 314.97 758 314.97 758 327.97 713 327.97 713 267.97 758 267.97"/>
      <path d="M120,327.97l29.16-59.84,10.38-.24,29.46,60.07h-15.5c-1.27,0-2.94-6.08-3.99-7.01-2.77-2.47-23.74-.32-28.85-.83l-5.16,7.84h-15.5,0ZM163,307.97l-8.5-19.01-8.5,19.01h17Z"/>
      <path d="M782,309.97c.15.1.3,2.34,1.11,3.35,7.96,10.04,26.17,1.96,19.47-6.43-6.11-7.65-35.96-2.23-35.49-21.31.58-23.37,47.64-26.55,50.92-2.61h-14.5c-.25,0-2.37-2.59-3.77-3.23-6.11-2.82-19.26-.48-16.6,7.57,1.11,3.35,18.32,4.68,22.82,6.21,19.66,6.67,17.96,27.4-.68,34.23-15.97,5.86-35.37.16-39.28-17.78h16Z"/>
      <polygon points="113 267.97 113 280.97 82 280.97 82 291.97 106 291.97 106 304.97 82 304.97 82 314.97 113 314.97 113 327.97 68 327.97 68 267.97 113 267.97"/>
      <path d="M880,282.97h-15c-.2,0,.09-2.13-2.22-3.26-6.08-2.97-18.41-1.6-16.65,7.59,1.85,5.75,31.65,1.83,35.45,17.6,7.21,29.9-49.76,34.28-52.57,5.07h16c.35,0,.67,4.01,3.48,6.02,7.91,5.67,23.7-1.68,16.54-9.55-6.18-6.78-31.76-2.34-34.79-17.2-5.29-25.98,47.35-31.93,49.77-6.27h-.01Z"/>
      <path d="M540,267.97v13h-31v14h25c-.58,4.15,1.5,9.82-1.5,13h-23.5v20h-14v-60h45Z"/>
      <polygon points="307 267.97 307 280.97 285 280.97 285 327.97 270 327.97 270 280.97 247 280.97 247 267.97 307 267.97"/>
      <polygon points="631 267.97 631 280.97 608 280.97 608 327.97 594 327.97 594 280.97 571 280.97 571 267.97 631 267.97"/>
      <polygon points="213 267.97 213 313.97 251 313.97 251 327.97 199 327.97 199 267.97 213 267.97"/>
      <rect x="548" y="267.97" width="15" height="60"/>
    </g>
  </g>
</svg>