<?xml version="1.0" encoding="UTF-8"?>
<svg id="Layer_2" xmlns="http://www.w3.org/2000/svg" version="1.1" viewBox="0 0 1000 1000">
  <!-- Generator: Adobe Illustrator 29.0.1, SVG Export Plug-In . SVG Version: 2.1.0 Build 192)  -->
  <defs>
    <style>
      .st0 {
        fill: #fff;
      }
    </style>
  </defs>
  <g id="Layer_1-2">
    <g>
      <path class="st0" d="M575.8,435.8v22h-89.5c-32.4,0-41.9,37.1-32.5,62.5,3.9,10.4,16.1,20.5,27.5,20.5h55.5v-30h-51v-23h90v77c-30.5-1.2-62.2,1.7-92.5,0-45.4-2.5-78.9-20-75.6-70.5,2.6-40,32.9-56,69.5-58.5h98.5Z"/>
      <path class="st0" d="M54.8,434.8c32.8,1.2,66.8-1.6,99.5,0,24.4,1.2,55.9,5.6,58.3,35.7,1.9,23.5-13.8,34.6-34.4,39.4-1.2.3-1.8-.8-1.5,1.5l43,53.5h-41.5l-41-51h-44.5v51h-38v-130h0ZM92.8,490.8h60.5c2.4,0,11.9-2.5,14.2-3.8,8.3-4.6,9.1-19.9.3-24.8-6.1-3.3-20.2-4.1-27.5-4.5-11.8-.6-32.8-1.3-44.1,0-1.5.2-2.6.1-3.4,1.5v31.5h0Z"/>
      <path class="st0" d="M293.6,433.1c43.5-3,102.2,3.9,106.2,58.2,5.2,69.7-54.7,79.4-110.5,75.5-37.4-2.6-68.9-19.8-71.6-60.4-3.3-50.2,30.3-70.1,75.8-73.2h0ZM306.7,455.1c-23.8.5-44.8,11.2-46.9,37.2-3.3,42.2,21.1,56.3,60.4,52.4,19.1-1.9,34.9-14,37.4-33.6,4.8-37.5-13.7-56.8-50.9-56h0Z"/>
      <path class="st0" d="M906.8,435.8v22h-70.5c-3.3,0-13.3,2.8-16.8,4.2-11.9,4.9-16.5,13.5-18.7,25.8h106v23h-106c.9,12.3,4.4,22.2,16.3,27.2,2.2.9,11.4,3.8,13.2,3.8h76.5v23c-38.8-2.7-109,10.2-137-23.5-6.7-8.1-11.3-20.5-12.1-30.9-6.5-92.1,87.8-72.6,149-74.5Z"/>
      <path class="st0" d="M629.8,435.8v84.5c0,1.7,2.8,10.4,3.8,12.2,4,7.2,14.3,10.8,22,12,15.2,2.5,45.3,2.7,52.7-13.8,1.2-2.7,3.5-10.9,3.5-13.5v-81.5h38v83.5c0,15.4-8,30.3-21.6,37.4-25.9,13.3-104.8,14.8-125.8-7.9-3.7-4-10.6-18.2-10.6-23.4v-89.5h38,0Z"/>
      <path class="st0" d="M930.6,435c13.3-2.7,20,14,9.2,21.2-15.6,10.4-26.7-17.6-9.2-21.2ZM940.5,439.1c-9.7-9.7-23.6,6.8-13.7,15.2,10.4,8.8,22.1-6.8,13.7-15.2Z"/>
      <path class="st0" d="M928.8,439.8l9.6.9c1.5,3.3,0,5.4-2.4,7.6l2.8,5.5c-3.7.2-2.7-5.3-6.5-6-3.6-.7.8,7.2-3.5,6v-14ZM936.8,441.8c-.1-.2-4.2-1.4-5-.6l-1,4.6c2.6,1,8-1,6-4Z"/>
    </g>
  </g>
</svg>