<?xml version="1.0" encoding="UTF-8"?>
<svg id="Layer_2" xmlns="http://www.w3.org/2000/svg" version="1.1" viewBox="0 0 250 131">
  <!-- Generator: Adobe Illustrator 29.0.1, SVG Export Plug-In . SVG Version: 2.1.0 Build 192)  -->
  <g id="Layer_1-2">
    <g>
      <path d="M0,69.1c1.4-5.5,5.3-2.1,9.5-2,8.3.2,23.4,1.1,31,0,3.4-.6,7.6-4.5,4-6.8s-18.5-.8-23.9-1.1c-2.7-.2-14.6-1.1-15.9-2.1-2.2-1.6-1.6-2.8-1.3-5.2,1-9.4,6-10.3,14.2-10.8,3.9-.3,42.2-.6,42.5,1.5.3,2.2-.3,3.1-2.5,3.5-7.9,1.4-18.7-1.2-27-1-2.5,0-12.8,1.1-14,2-1,.7-1.7,2.6-2.3,3.7-.2,2.5,5.6,3,7.5,3.2,6.1.7,12.7-.2,18.9.1,2.5.2,13.7,1.2,14.8,1.9,3.2,2,.7,10.1-1.3,12.6-2.2,2.8-5.1,3.2-8.5,3.5-14.2,1.3-31.2-.5-45.5-1v-2H0Z"/>
      <path d="M250,42.1v3l-40.3,1.2c-3,.9-4.7,7.8-2.2,7.8h32.5c.1,2.7.5,4.5-2.5,5-7.9,1.5-25.5-2-31.9.1-1.9.6-2.3,4.4-2.7,6.2.1.6,2.4,1.7,2.6,1.7h38.5c.2,4.5-3.8,4.7-7.5,5-9.4.8-28.8,1.1-38,0-2.3-.3-4.2-1.3-6.3-2.2-1.1-1.7,3.7-21.5,5.1-24.1,1.9-3.8,5.4-4.4,9.2-4.8,13.6-1.3,29.8.5,43.5,1Z"/>
      <path d="M78.8,41.4c8.8-1.4,30.5-1.1,39.8-.3,2.7.2,7,.4,7.5,3.6.4,2.4-4.2,21.3-5.6,23.4-1.6,2.5-6.1,3.7-8.9,4.1-9.2,1-28.7.8-38,0-3.3-.3-8.2-.7-8-5.2.1-2.6,3.9-17.3,5-19.9,1.7-4,4.1-5.1,8.3-5.7h0ZM114.9,47.2c-.4-.6-13.3-2.2-15.4-2.2s-15.5,1.1-16.5,1.6c-2.9,1.4-6.2,15.7-5.9,19.4,1,1.6,28.6,1.8,31.6.4,3.9-1.8,5.5-14.8,6.2-19.2Z"/>
      <path d="M185,67.1c1,4.3-4.3,4.7-7.5,5-8.9.9-26.1.8-35,0-3.5-.3-9.4-.6-9.3-5.2.1-2.4,5.7-24.6,6.7-25.4l10.1-.4c1.1,1.1-8.4,26-3.5,26h38.5Z"/>
    </g>
  </g>
</svg>