<?xml version="1.0" encoding="UTF-8"?>
<svg id="Layer_2" data-name="Layer 2" xmlns="http://www.w3.org/2000/svg" viewBox="0 0 533.17 144.78">
  <g id="Layer_2-2" data-name="Layer 2">
    <g id="Layer_1-2" data-name="Layer 1-2">
      <g>
        <path d="M395.81,0c1.52.77,2.7,1.94,4.02,2.97,6.96,5.47,13.39,15.21,19.79,20.64,1.14.96,2.72,2.04,4.2,2.29l59.64.08c4.01-7.37,12.06-10.61,19.94-6.78,2.16,1.05,26.66,25.67,27.88,28.02,2.87,5.54,2.36,9.48-.77,14.61-.62,1.02-3.43,3.3-3.43,3.56v53.41h-90.34c-3.75,4.04-11.81,25.17-15.97,25.96l-216.65.02c-2.11.08-3.37-.91-4.97-2.02-5.4-3.75-20.8-23.14-24.98-23.94l-80.34-.03-.13,6.36-1.5,1.49c-11.78-.59-25.21,1.29-36.78.13-10.4-1.05-16.65-13.29-24.47-19.45v-30.45c-2.96-.18-6.05.6-8.94-.54-5.09-2.01-16.25-18.27-22.01-21.92V0h395.81ZM396.31,2.99H2.99v50.41c5.28,3.43,15.36,17.85,19.98,19.95,2.98,1.35,9.12-.57,10.53,1.45l.61,31.33,18.29,17.65h38.43v-6.99h87.35c8.86,8.08,15.47,18.81,25.98,24.94l216.94-.14,13.63-24.8h89.35v-52.41c0-.46,5.1-4.19,5.79-7.2.62-2.76.21-6.01-1.02-8.54-1.07-2.2-24.58-25.57-27.02-26.88-3.03-1.62-6.7-1.86-9.92-.54-3.65,1.5-5.52,7.21-8.24,7.73l-60.88-.03c-9.64-6.73-16.78-16.9-26.13-24.32-.38-.3-.37-1.1-.35-1.62h0Z"/>
        <path d="M334.41,22.96v10.98H65.38l-1.5,1.5v59.9c0,.21,1.49,1.13,1,1.49h-11.98v-62.88H14.97v-10.98h319.45-.01Z"/>
        <path d="M399.3,103.82l12.9-25.46-15.9-30.44,12.99.48,8.98,17.48c1.77,1.32,9.29-16.46,10.95-17.48l12.99-.47-34.94,66.87h-197.66v-10.98h189.69Z"/>
        <path d="M391.31,32.94v11.98h-36.44l-1.5,1.5v29.95l1.5,1.5h27.45l-.93-7.55-10.05-.43v-10.99h21.97v30.95h-41.43c-.59,0-5.56-3.7-6.34-4.64-5.81-7.02-5.46-34.76-2.42-43.06,1.2-3.27,6.52-9.21,9.76-9.21h38.43,0Z"/>
        <path d="M464.19,47.91l10.99,24.96,12.97-24.96h16.97l-1.05,41.87-10.93.05v-23.96l-11.47,22.97c-1.76,1.57-9.16,1.66-11.01,0l-11.47-22.97v23.96h-11.98v-41.93h16.98Z"/>
        <path d="M267.53,76.86v-28.95h10.98v41.93h-15.47l-22.46-27.95v27.95c-3.85-.52-9.08,1.43-11.98-1.5v-40.43h15.47l23.46,28.95h0Z"/>
        <path d="M295.19,48.12c3.94-.89,24.36-.81,28.68-.15,12.05,1.86,11.37,18.17,10.58,27.42-.71,8.27-3.72,13.46-12.51,14.44-5.15.57-24.76.63-28.73-1.23s-6.24-6.11-6.71-10.26c-.61-5.4-.75-20.73,1.99-24.96,1.09-1.68,4.7-4.82,6.7-5.28v.02ZM322.43,59.89c-3.69-1.22-24.96-2.5-24.96,1.5v14.97l1.5,1.5h21.96l1.5-1.5v-16.47Z"/>
        <path d="M114.79,47.91v10.98h-29.95l-1,3.99h14.47c.3,0,4.89.71,5.02.93l.47,10.05h-18.97v3.99h30.95v11.98h-42.93v-41.93h41.94Z"/>
        <path d="M132.76,76.36c.63.99,1.38,1.29,2.5,1.5,2.24.41,20.66.19,21.54-.44l1.53-3.62,10.38.06c1.25,6.18-1.92,13.38-8.15,15.32-4.25,1.32-22.33,1.22-27.29.66-7.18-.8-11.12-4.61-12.22-11.74-1.3-8.49-2.04-26.15,7.99-29.42,4.36-1.42,25.92-1.39,30.75-.34,7.24,1.57,9.93,8.77,8.92,15.55l-10.37.06c-1.03-.29-.63-2.97-2-4.16-1.96-1.68-23.57-1.93-23.57,1.6v14.97h0Z"/>
        <polygon points="187.67 47.91 187.67 62.89 209.63 63.89 209.63 47.91 221.61 47.91 221.61 89.84 209.63 89.84 209.63 73.87 187.67 73.87 187.67 89.84 176.69 89.84 176.69 47.91 187.67 47.91"/>
        <path d="M502.81,38.61c-8.66,7.91-21.5-5.54-12.19-13.68,9.14-8,20.23,6.34,12.19,13.68h0ZM491.43,26.25c-6.94,5.6,2.77,18.03,10.23,10.73,6.59-6.44-3.1-16.48-10.23-10.73Z"/>
        <path d="M498.14,36.93l-2.5-4-2.5,4v-9.99l6.54.94c.99,1.41,1.18,8.46-1.55,9.05h.01Z"/>
      </g>
    </g>
  </g>
</svg>