<?xml version="1.0" encoding="UTF-8"?>
<svg id="Layer_2" xmlns="http://www.w3.org/2000/svg" version="1.1" viewBox="0 0 364 183">
  <!-- Generator: Adobe Illustrator 29.0.1, SVG Export Plug-In . SVG Version: 2.1.0 Build 192)  -->
  <defs>
    <style>
      .st0 {
        fill: #dfe0e1;
      }

      .st1 {
        fill: #f69870;
      }

      .st2 {
        fill: #e0e1e2;
      }

      .st3 {
        fill: #f69971;
      }

      .st4 {
        fill: #f69871;
      }
    </style>
  </defs>
  <g id="Layer_1-2">
    <g>
      <path class="st2" d="M292.1,182.7v-36.8h-29.9c1.5-5.9,3.2-19.3,6-24.1.4-.7,2-1.8,2.5-1.8h21.4v-35.8h22.9v98.5h-22.9,0Z"/>
      <polygon class="st2" points="40.8 182.7 40.8 84.3 63.7 84.3 63.7 120.1 92.7 120.1 86.7 145.9 63.7 145.9 63.7 182.7 40.8 182.7"/>
      <path class="st2" d="M.9,126.1c3.7-1.1,3-4.9,7.4-7,2.3-1.1,4.9-.4,6.6-2.4v-32.3h22.9v98.5H15.9c-2.7-5.2.5-38.4-1-39.8-.3-.3-4.9,0-7.7-1.8-3.2-2.1-2.8-5.8-6.3-6.2v-8.9Z"/>
      <path class="st0" d="M318,182.7v-98.5h22.9v33.8c0,.2,2.7,0,4,.5,11.2,4.5,10.9,19.5,0,23.9-1.2.5-3.8.4-3.9.5-1.4,1.4,1,34.7,0,39.7h-22.9Z"/>
      <path class="st1" d="M239.3,50.5c-1.2,3-7.1,21.1-8.1,21.7-.6.4-9.8.3-11.4.1-1.4-.2-1.8.5-1.4-1.4l24.4-61.2c2.4-4.6,4.4-7.3,9.9-8,8.2-1,27.6-.8,36,0,9.9.9,10,8,7.9,15.9-3.5,13.6-14.5,30.2-29.4,31.9l11,22.9h-18c-1.8-2.9-10.1-22-11.1-22.7-1.4-.8-5.9.2-7.8-.2,2.1-3.4,3.3-9.1,5-12.9,8.3-3,19.5,1.4,27.6-2.8,6.1-3.1,8.3-11.1,10.3-17.1h-31.9c-2,6.6-4.4,13.5-7,19.9-1.9,4.6-4.1,9.2-6,13.9Z"/>
      <path class="st4" d="M37.3,55.4c-2.4.7-5.6,15.2-7.4,16.5-2.1,1.4-9.1,0-12,.4,5.3-14.1,10.1-31.3,17.8-44.4C48.8,5.3,66.6-.7,92.2,1.7c2.9.3,6.1.7,7,4,1.6,5.8-22.4,55.3-24.6,65.1-2.2,3.1-9.3,1-12.9,1.6l6-16.9s-30.4,0-30.4,0ZM83.7,16.7h-18.5c-.3,0-5.5,2.1-6.4,2.6-7.8,3.8-14.1,12.9-16,21.3h31.9s9-23.9,9-23.9Z"/>
      <path class="st2" d="M176.4,95.2l-4.1,17.8h-40.1c0,0-3.7,11-3.7,11h34.9c.1,6.1-3.1,11.8-4.1,17.8l-35.8.6-7.9,27.4h-16l19.2-65.9c.6-3.6,5.8-8.7,9.2-8.7h48.4,0Z"/>
      <path class="st1" d="M88.9,71.1c-1.3-1.3-1.6-4.9-.8-6.7,8.4-17,13.3-38.2,21.7-54.9,2.4-4.8,4.6-7.1,10.2-7.7,6.2-.7,27.2-.7,32.4,1.5,16.1,6.8,4.2,35.1-1.8,45.9s-17.7,21.7-30.7,23.1c-4.3.5-29.2.8-31-1.1ZM103.6,57.4h21.4c3.6,0,11.2-6.5,13.3-9.6,2.3-3.4,9.5-21.1,9.1-24.6-.2-2.1-2.6-5.8-4.7-6.4-2.3-.7-22.6-.5-23.3.4l-15.8,40.2h0Z"/>
      <path class="st1" d="M331.8,1c37.6-5.1,35.8,16.4,23.4,43.2-9.8,21.1-23.2,31.4-47.5,29.2s-14.6-29.7-7.7-44.4c6-12.8,16.9-25.9,31.9-27.9h0ZM327.7,15.9c-2.7.5-6.6,2.4-8.8,4.2-5.8,4.9-15.8,27.3-13.5,34.4,1.8,5.4,14.2,4.4,19,4,8.1-.7,13.6-5.7,17.3-12.6,2.8-5.2,9.7-22,7.4-27-2.1-4.6-16.8-3.8-21.5-3h0Z"/>
      <path class="st3" d="M190.4,1.7c1.9,1.7-19,41.3-15.9,48.2,1.6,10.4,18.2,7.2,25.7,7.3L221.8,2.7c1.8-2.2,9.5-.5,12.5-1,0,.8,0,1.5-.2,2.3-1.7,9-18.9,50.6-23.7,59.9-1.6,3-3.1,6.2-6.4,7.5-4.1,1.6-19,1.3-24,1-38.3-3-8.2-50.5-2-69.7,2.1-2.1,9.4-.5,12.5-1h0Z"/>
      <path class="st2" d="M266.2,95.2l-4.1,17.8-22.7.2-16.2,56.4c-1.9.9-15.8,2-15.8.7l16-57.2h-20.9c.9-5.9,2.4-12.8,5.5-17.9h58.3Z"/>
      <path class="st2" d="M199.4,95.2l-22.4,75.7c-2.9-.6-11.6,1-13.1-1l-.4-2.4,20.9-72.2h15,0Z"/>
    </g>
  </g>
</svg>